<svg width="300" height="300" viewBox="0 0 680 400" xmlns="http://www.w3.org/2000/svg">
<circle cx="340" cy="180" r="155" fill="#0A0A18"/>
<circle cx="340" cy="180" r="150" fill="none" stroke="#E94560" stroke-width="2.5"/>
<circle cx="340" cy="180" r="140" fill="none" stroke="#E94560" stroke-width="0.5" stroke-dasharray="4,4"/>
<rect x="295" y="130" width="90" height="80" rx="6" fill="#1A1A2E" stroke="#E94560" stroke-width="1.5"/>
<path d="M385 150 Q415 150 415 170 Q415 190 385 190" fill="none" stroke="#E94560" stroke-width="2.5" stroke-linecap="round"/>
<ellipse cx="340" cy="215" rx="60" ry="8" fill="#1A1A2E" stroke="#E94560" stroke-width="1.5"/>
<rect x="300" y="207" width="80" height="8" fill="#1A1A2E"/>
<rect x="299" y="134" width="82" height="50" rx="4" fill="#2C1810"/>
<path d="M315 125 Q310 110 315 95" fill="none" stroke="#E94560" stroke-width="2" stroke-linecap="round"/>
<path d="M340 120 Q335 105 340 90" fill="none" stroke="#E94560" stroke-width="2" stroke-linecap="round"/>
<path d="M365 125 Q360 110 365 95" fill="none" stroke="#E94560" stroke-width="2" stroke-linecap="round"/>
<circle cx="220" cy="120" r="3" fill="#E94560"/>
<circle cx="210" cy="145" r="2" fill="#E94560" opacity="0.6"/>
<circle cx="225" cy="165" r="1.5" fill="#E94560" opacity="0.4"/>
<circle cx="460" cy="120" r="3" fill="#E94560"/>
<circle cx="470" cy="145" r="2" fill="#E94560" opacity="0.6"/>
<circle cx="455" cy="165" r="1.5" fill="#E94560" opacity="0.4"/>
<text x="340" y="268" font-family="serif" font-size="28" font-weight="700" fill="#F5F5F5" text-anchor="middle" letter-spacing="4">BREWNOVA</text>
<text x="340" y="292" font-family="sans-serif" font-size="11" fill="#E94560" text-anchor="middle" letter-spacing="3">CAFE &amp; ROASTERY</text>
<line x1="210" y1="275" x2="270" y2="275" stroke="#E94560" stroke-width="0.5"/>
<line x1="410" y1="275" x2="470" y2="275" stroke="#E94560" stroke-width="0.5"/>
<circle cx="207" cy="275" r="2.5" fill="#E94560"/>
<circle cx="473" cy="275" r="2.5" fill="#E94560"/>
</svg>